<svg xmlns="http://www.w3.org/2000/svg" xmlns:xlink="http://www.w3.org/1999/xlink" width="1474" height="888" viewBox="0 0 1474 888"><title>Browser window</title><defs><rect id="a" width="1462" height="876" rx="8"/><filter x="-.8%" y="-.8%" width="101.5%" height="102.5%" filterUnits="objectBoundingBox" id="b"><feOffset dy="4" in="SourceAlpha" result="shadowOffsetOuter1"/><feGaussianBlur stdDeviation="3" in="shadowOffsetOuter1" result="shadowBlurOuter1"/><feColorMatrix values="0 0 0 0 0 0 0 0 0 0 0 0 0 0 0 0 0 0 0.4 0" in="shadowBlurOuter1"/></filter><path id="e" d="M0 0h1462v996H0z"/><filter x="-.3%" y="-.4%" width="100.7%" height="101%" filterUnits="objectBoundingBox" id="d"><feOffset dy="1" in="SourceAlpha" result="shadowOffsetOuter1"/><feGaussianBlur stdDeviation="1.5" in="shadowOffsetOuter1" result="shadowBlurOuter1"/><feColorMatrix values="0 0 0 0 0 0 0 0 0 0 0 0 0 0 0 0 0 0 0.4 0" in="shadowBlurOuter1"/></filter><rect id="f" width="1222" height="28" rx="4"/><filter x="0%" y="-1.8%" width="100.1%" height="103.6%" filterUnits="objectBoundingBox" id="g"><feOffset dy="1" in="SourceAlpha" result="shadowOffsetInner1"/><feComposite in="shadowOffsetInner1" in2="SourceAlpha" operator="arithmetic" k2="-1" k3="1" result="shadowInnerInner1"/><feColorMatrix values="0 0 0 0 0 0 0 0 0 0 0 0 0 0 0 0 0 0 0.24 0" in="shadowInnerInner1"/></filter></defs><g transform="translate(6 2)" fill="none" fill-rule="evenodd"><mask id="c" fill="#fff"><use xlink:href="#a"/></mask><g mask="url(#c)"><path d="M10.256 0h1441.488c3.567 0 4.86.371 6.163 1.069a7.27 7.27 0 0 1 3.024 3.024c.698 1.303 1.069 2.596 1.069 6.163V56H0V10.256c0-3.567.371-4.86 1.069-6.163a7.27 7.27 0 0 1 3.024-3.024C5.396.37 6.689 0 10.256 0z" fill="#E8E8E8"/><rect fill="#28CA42" x="60" y="22" width="12" height="12" rx="6"/><rect fill="#FFBE2F" x="42" y="22" width="12" height="12" rx="6"/><rect fill="#FF5F57" x="24" y="22" width="12" height="12" rx="6"/><path d="M1414 34h24v4h-24v-4zm0-8h24v4h-24v-4zm0-8h24v4h-24v-4z" fill="#B3B3B3"/><g transform="translate(120 14)"><use fill="#FFF" xlink:href="#f"/><use fill="#000" filter="url(#g)" xlink:href="#f"/></g><text font-family="ArialMT, Arial" font-size="16" fill="#000" transform="translate(120 14)"><tspan x="75" y="20"/></text><text font-family="ArialMT, Arial" font-size="16" fill="gray" transform="translate(120 14)"><tspan x="61" y="20"/></text><text font-family="ArialMT, Arial" font-size="16" fill="#088043" transform="translate(120 14)"><tspan x="26" y="20"/></text></g></g></svg>
