<?xml version="1.0" standalone="no"?>
<!DOCTYPE svg PUBLIC "-//W3C//DTD SVG 20010904//EN"
 "http://www.w3.org/TR/2001/REC-SVG-20010904/DTD/svg10.dtd">
<svg version="1.0" xmlns="http://www.w3.org/2000/svg"
 width="736.000000pt" height="490.000000pt" viewBox="0 0 736.000000 490.000000"
 preserveAspectRatio="xMidYMid meet">

<g transform="translate(0.000000,490.000000) scale(0.100000,-0.100000)"
fill="#000000" stroke="none">
<path d="M3058 3900 c-4 -47 -10 -155 -13 -240 -3 -85 -8 -170 -11 -187 -5
-32 -7 -33 -49 -33 l-45 0 0 -45 c0 -41 -2 -45 -24 -45 -29 0 -29 5 -52 -450
-8 -173 -17 -321 -19 -327 -3 -10 -67 -13 -275 -13 l-270 0 0 -150 c0 -148 0
-150 -22 -150 -13 0 -42 19 -69 46 l-48 47 -49 -37 c-27 -20 -61 -36 -74 -36
-15 0 -46 -19 -80 -50 -31 -27 -62 -50 -70 -50 -7 0 -19 -14 -27 -31 -11 -24
-18 -30 -40 -27 -25 3 -26 6 -29 71 -3 72 0 68 -67 71 -25 1 -31 6 -33 28 -3
24 -10 30 -60 44 -31 9 -86 24 -121 35 -35 10 -67 19 -72 19 -5 0 -10 -134
-11 -297 l-3 -298 -42 3 c-38 3 -43 1 -43 -17 0 -19 -6 -21 -51 -21 -89 0 -89
0 -91 -163 l-2 -142 -6 145 -5 144 -37 9 c-21 5 -38 13 -38 18 0 5 -7 9 -15 9
-10 0 -15 10 -15 30 0 25 -4 30 -25 30 -21 0 -25 -5 -25 -27 0 -40 -10 -50
-52 -58 -22 -4 -39 -14 -41 -24 -4 -14 -5 -14 -6 2 -1 13 -10 17 -41 17 -44 0
-60 18 -60 69 0 28 -3 31 -30 31 -28 0 -30 -3 -30 -36 0 -19 -7 -42 -15 -50
-8 -8 -12 -21 -9 -29 4 -10 0 -15 -15 -15 -12 0 -30 -9 -41 -20 -18 -18 -20
-33 -20 -155 0 -126 -1 -135 -19 -135 -10 0 -21 -9 -24 -20 -6 -23 -27 -27
-27 -5 0 12 -19 15 -110 15 -97 0 -112 -2 -130 -20 -11 -11 -20 -25 -20 -30 0
-6 -6 -10 -12 -8 -7 1 -23 -2 -36 -6 -15 -5 -29 -3 -39 5 -13 11 -17 10 -28
-5 -8 -10 -18 -15 -24 -11 -6 3 -11 -1 -11 -9 0 -20 -19 -20 -44 -1 -17 13
-22 11 -55 -20 -20 -20 -36 -43 -36 -53 0 -10 -11 -19 -30 -24 -29 -6 -29 -6
5 -5 30 2 35 6 38 29 2 20 10 30 28 34 13 3 24 12 24 20 0 19 26 18 34 -1 7
-20 46 -19 46 1 0 10 6 14 15 10 9 -3 15 0 15 10 0 11 5 14 17 9 10 -4 23 -7
28 -6 6 1 21 2 35 4 25 2 70 39 70 57 0 6 40 10 99 10 79 0 100 -3 105 -15 5
-13 53 -15 349 -15 l344 0 24 36 24 36 90 1 90 2 3 388 c1 213 6 387 11 387 5
0 11 9 14 20 5 19 14 20 126 20 l121 0 0 -70 0 -70 39 0 c34 0 41 4 53 30 7
17 20 30 28 30 9 0 38 22 65 50 37 37 57 50 79 50 18 0 44 13 71 34 l42 35 44
-45 43 -44 73 0 73 0 0 -405 0 -405 45 0 45 0 0 80 c0 47 4 80 10 80 6 0 10
32 10 75 0 43 4 75 10 75 6 0 10 18 10 40 0 29 4 40 15 40 12 0 15 28 17 168
l3 167 42 20 c39 18 43 23 43 58 0 26 4 37 15 37 9 0 15 -9 15 -25 0 -22 4
-25 35 -25 l35 0 0 70 c0 63 2 70 19 70 16 0 20 8 23 38 3 32 6 37 28 37 21 0
26 -5 28 -32 2 -18 7 -33 13 -33 5 0 9 -41 9 -91 0 -82 2 -91 20 -96 17 -5 20
-14 20 -70 0 -56 3 -66 20 -70 16 -4 20 -14 20 -44 0 -28 4 -39 15 -39 11 0
15 -11 15 -40 0 -33 3 -40 20 -40 20 0 20 -7 20 -295 l0 -296 103 3 102 3 3
173 2 172 40 0 40 0 0 315 c0 191 4 315 9 315 6 0 11 19 13 43 l3 42 110 0
110 0 3 -35 c2 -19 8 -38 14 -41 7 -4 10 -111 9 -310 0 -167 2 -312 5 -321 3
-10 12 -18 20 -18 11 0 14 -18 14 -85 0 -47 4 -85 9 -85 5 0 11 -9 14 -20 4
-17 9 -18 36 -9 23 8 31 17 31 35 0 17 6 24 20 24 19 0 20 7 20 129 0 105 3
130 15 135 11 4 15 21 15 61 0 48 3 55 19 55 14 0 21 8 23 26 l3 26 125 1 125
2 3 37 c2 20 10 42 18 48 9 8 14 32 14 71 l0 59 40 0 c33 0 40 3 40 20 0 13 7
20 19 20 11 0 23 5 26 10 12 20 35 10 35 -14 0 -22 5 -25 43 -28 l42 -3 3 -52
c3 -45 6 -52 25 -55 22 -3 22 -4 24 -252 1 -136 4 -251 8 -254 3 -3 4 111 3
254 l-3 259 -22 3 c-29 4 -33 51 -5 53 9 1 24 2 32 3 8 2 30 3 48 4 l32 2 0
205 0 205 110 0 c63 0 110 4 110 10 0 5 33 11 73 13 l72 3 -77 2 c-47 1 -78
-2 -78 -8 0 -6 -43 -10 -110 -10 l-110 0 0 -45 0 -45 -155 0 -155 0 -2 233 -3
232 -170 -2 c-93 -2 -173 -3 -177 -3 -5 0 -8 -90 -8 -200 l0 -200 -60 0 -60 0
-2 -62 c-2 -35 -3 -94 -3 -133 l0 -70 -47 -3 c-46 -3 -48 -2 -48 23 0 14 -7
28 -15 31 -10 4 -15 20 -15 45 l0 39 -52 0 -53 0 3 125 3 125 -105 0 c-58 0
-106 -4 -106 -9 0 -4 43 -6 95 -3 l95 5 0 -122 0 -121 -65 0 -65 0 0 -45 c0
-25 -4 -45 -10 -45 -6 0 -11 -116 -12 -312 l-3 -313 -37 2 c-37 2 -38 1 -38
-35 -1 -20 -2 -100 -3 -177 l-2 -140 -92 -3 -93 -3 0 297 c0 287 -1 296 -20
301 -15 4 -20 14 -20 38 0 20 -6 35 -15 39 -9 3 -15 11 -14 18 3 29 -1 68 -8
67 -29 -5 -33 4 -33 65 0 55 -3 64 -20 69 -17 4 -19 13 -18 92 1 61 -2 89 -11
94 -10 7 -11 51 -2 227 6 121 14 248 16 284 6 71 25 395 25 423 0 11 8 17 25
17 23 0 25 4 25 45 l0 45 44 0 c54 0 56 3 57 128 1 53 4 122 9 152 6 44 7 29
9 -77 1 -126 2 -133 21 -133 17 0 20 -7 20 -45 0 -43 1 -45 30 -45 27 0 30 -3
30 -30 0 -23 4 -30 20 -30 19 0 20 -7 22 -177 1 -98 2 -196 3 -218 1 -22 8
-312 15 -645 7 -352 16 -609 22 -615 6 -6 8 3 4 25 -3 19 -8 215 -11 435 -4
220 -8 423 -10 450 -2 28 -6 209 -10 403 -7 335 -8 352 -26 352 -14 0 -19 7
-19 30 0 27 -3 30 -30 30 -29 0 -30 2 -30 44 0 35 -4 45 -20 49 -19 5 -20 14
-21 149 -1 78 -4 184 -8 233 l-6 90 -7 -85z m1097 -1002 c3 -2 5 -168 5 -369
l1 -364 -35 -3 -36 -3 0 -58 c0 -40 -5 -63 -15 -71 -8 -7 -15 -28 -15 -46 0
-20 -5 -34 -12 -34 -7 0 -59 -3 -115 -7 l-103 -6 0 484 0 484 160 -1 c89 -1
163 -3 165 -6z m-1314 -352 c3 -3 3 -23 1 -45 -4 -39 -6 -41 -38 -41 -33 0
-34 -1 -34 -39 0 -33 -4 -40 -22 -43 -21 -3 -23 -9 -26 -70 -2 -51 -7 -68 -17
-68 -8 0 -17 11 -21 25 -4 18 -13 25 -30 25 -21 0 -24 -5 -24 -35 0 -24 -5
-35 -15 -35 -8 0 -15 -4 -15 -10 0 -5 -7 -10 -16 -10 -37 0 -43 -29 -44 -193
0 -131 -3 -159 -15 -163 -10 -4 -15 -20 -15 -45 0 -21 -4 -39 -10 -39 -6 0
-10 -32 -10 -75 0 -43 -4 -75 -10 -75 -6 0 -10 -33 -10 -80 l0 -80 -35 0 -35
0 0 405 0 405 -45 0 -45 0 0 145 0 145 263 0 c145 0 266 -2 268 -4z m945 -56
c24 0 24 0 24 -125 l0 -125 -55 0 -55 0 0 131 0 132 31 -7 c17 -3 42 -6 55 -6z
m694 -205 l0 -155 -59 0 c-50 0 -59 3 -64 20 -4 16 -14 20 -46 20 -37 0 -41 2
-41 25 0 18 -5 25 -19 25 -11 0 -23 -4 -26 -10 -3 -5 -17 -10 -31 -10 l-24 0
0 120 0 120 155 0 155 0 0 -155z m-2867 44 c59 -18 67 -23 67 -44 0 -24 -2
-25 -80 -25 -73 0 -80 -2 -80 -20 0 -11 -4 -20 -10 -20 -6 0 -10 -135 -10
-385 l0 -385 -89 0 -89 0 -21 -34 c-12 -19 -29 -37 -38 -40 -9 -4 -152 -6
-319 -6 -258 1 -304 3 -304 16 0 7 9 14 20 14 19 0 20 7 20 140 0 118 2 140
15 140 8 0 15 7 15 15 0 9 9 15 25 15 20 0 25 5 25 25 0 14 5 25 10 25 6 0 10
18 10 40 0 33 3 40 20 40 16 0 20 -7 20 -31 0 -51 16 -69 60 -69 29 0 40 -4
40 -15 0 -8 7 -15 15 -15 8 0 15 6 15 14 0 8 16 16 39 20 40 6 51 19 51 62 0
15 6 24 15 24 10 0 15 -10 15 -30 0 -20 5 -30 15 -30 8 0 15 -4 15 -9 0 -9 32
-22 60 -25 12 -1 14 -23 12 -126 -2 -132 3 -180 19 -180 6 0 8 4 5 9 -4 5 -1
11 5 13 8 3 11 48 10 140 -2 157 -2 158 88 158 38 0 51 4 51 14 0 10 14 16 43
18 l42 3 3 297 2 297 53 -15 c28 -9 82 -24 120 -35z m2197 -231 c0 -171 -6
-206 -34 -210 -19 -3 -21 -9 -21 -60 0 -41 -3 -58 -12 -58 -10 0 -13 -31 -13
-130 0 -123 -1 -130 -20 -130 -14 0 -20 -7 -20 -24 0 -22 -16 -36 -41 -36 -5
0 -9 7 -9 15 0 8 -4 15 -10 15 -6 0 -10 35 -10 85 0 69 -3 85 -15 85 -13 0
-15 39 -15 290 l0 290 110 0 110 0 0 -132z"/>
<path d="M4860 2025 l0 -685 -80 0 c-77 0 -80 1 -80 23 0 13 -9 32 -20 42 -15
14 -20 31 -20 72 l0 53 -68 0 c-63 0 -71 -2 -97 -30 -18 -19 -39 -30 -56 -30
-24 0 -28 5 -32 33 -4 31 -4 31 -5 -5 -2 -38 -2 -38 36 -38 28 0 45 7 62 25
20 22 32 25 87 25 l63 0 0 -48 c0 -36 5 -54 20 -67 11 -10 20 -29 20 -42 0
-22 2 -23 93 -23 65 0 99 4 113 14 22 17 44 4 44 -25 0 -11 6 -19 14 -19 8 0
17 -6 20 -12 4 -8 8 -9 11 -3 15 29 25 36 53 40 26 3 33 0 44 -26 15 -34 18
-35 50 -9 25 19 70 20 76 1 8 -24 43 -53 57 -47 8 3 27 1 42 -5 24 -9 30 -7
45 11 10 12 22 19 27 15 6 -3 20 0 31 7 18 11 23 10 34 -4 16 -21 68 -34 93
-23 28 13 107 14 121 3 8 -7 17 -7 27 2 12 10 20 9 39 -3 19 -13 26 -14 35 -4
8 10 39 10 151 1 77 -6 146 -17 153 -23 14 -11 863 -19 874 -7 4 3 -15 6 -41
6 l-47 0 3 118 3 117 255 5 c194 4 124 6 -287 8 -456 2 -543 4 -543 16 0 20
256 29 713 24 202 -1 367 0 367 5 0 4 -115 7 -255 7 l-255 0 0 121 c0 66 3
119 8 117 4 -2 63 -31 132 -65 117 -58 316 -133 355 -133 34 0 7 23 -54 46
-106 40 -256 123 -349 194 -80 62 -87 69 -84 98 l3 32 -161 0 -161 0 7 -48 6
-49 -53 -45 c-56 -47 -144 -105 -191 -126 l-28 -12 0 100 0 100 -105 0 -105 0
0 230 0 230 -50 0 -50 0 0 85 0 84 -72 3 -73 3 -3 38 -3 37 -104 0 -104 0 -3
-27 c-3 -25 -8 -28 -44 -31 -28 -2 -49 -11 -64 -28 -18 -18 -34 -24 -67 -24
l-43 0 0 55 0 55 -45 0 -45 0 0 75 0 75 -220 0 -220 0 0 -685z m420 -44 c0
-593 -2 -720 -13 -724 -8 -3 -20 4 -28 15 -36 53 -56 59 -105 33 -28 -14 -30
-13 -52 14 -19 26 -26 28 -51 21 -16 -4 -32 -6 -35 -2 -3 3 -6 -1 -6 -9 0 -8
-9 -15 -20 -16 -11 -1 -20 4 -20 11 0 7 -6 21 -14 32 -12 16 -18 17 -34 7 -18
-11 -20 -7 -26 55 -3 37 -6 340 -6 675 l0 607 205 0 205 0 0 -719z m100 519
l0 -50 -40 0 -40 0 0 50 0 50 40 0 40 0 0 -50z m432 13 l3 -38 67 -3 67 -3 3
-82 3 -82 53 -3 52 -3 0 -230 0 -229 105 0 105 0 0 -230 0 -230 35 0 35 0 0
-80 0 -80 -128 0 c-82 0 -132 4 -139 11 -7 7 -73 16 -147 22 l-136 11 -2 475
-3 476 -192 3 -193 2 0 -470 0 -470 -23 0 c-14 0 -28 -8 -33 -19 -7 -15 -14
-17 -31 -10 l-23 8 0 289 c0 159 3 424 7 590 l6 302 87 0 c79 0 89 2 110 25
16 17 35 25 69 27 42 3 46 5 49 31 l3 27 94 0 94 0 3 -37z m-34 -775 c2 -464
2 -467 -19 -478 -15 -9 -24 -8 -35 1 -12 10 -20 10 -34 2 -10 -7 -21 -8 -26
-3 -16 16 -123 18 -128 3 -8 -19 -37 -16 -66 7 -14 11 -33 20 -42 20 -17 0
-18 28 -18 453 0 250 3 457 7 461 4 3 86 5 182 4 l176 -3 3 -467z m1000 175
c-43 -2 -113 -2 -155 0 -43 1 -8 3 77 3 85 0 120 -2 78 -3z m62 -204 l0 -189
-25 0 -25 0 0 183 c0 101 2 186 5 188 2 3 13 5 25 6 19 2 20 -3 20 -188z
m-257 161 c-10 -11 -19 -20 -20 -20 -2 0 -3 9 -3 20 0 13 7 20 20 20 19 0 19
-1 3 -20z m152 -6 c-36 -30 -160 -114 -169 -114 -3 0 -6 18 -6 39 0 28 8 49
26 70 25 30 29 31 102 31 l77 -1 -30 -25z m45 -164 c0 -158 -2 -180 -16 -180
-14 0 -15 12 -9 93 6 83 5 95 -13 117 l-20 25 -22 -20 c-21 -19 -22 -25 -16
-117 6 -84 5 -98 -8 -98 -13 0 -16 19 -18 106 -3 90 -6 109 -21 118 -15 9 -21
7 -33 -9 -12 -15 -15 -42 -12 -118 3 -87 1 -97 -14 -97 -16 0 -18 12 -18 104
l0 104 100 67 c55 37 103 71 106 76 3 5 7 9 10 9 2 0 4 -81 4 -180z m106 129
c33 -37 207 -147 305 -193 52 -25 91 -45 87 -46 -18 -1 -193 67 -272 106 -144
72 -156 80 -156 120 0 39 9 43 36 13z m-346 -94 c-15 -18 -188 -93 -231 -101
-27 -5 -19 3 43 38 43 23 104 65 135 92 l58 49 3 -32 c2 -18 -2 -38 -8 -46z
m110 -116 c0 -90 -2 -99 -19 -99 -14 0 -20 10 -25 46 -15 111 -1 189 30 163
10 -8 14 -37 14 -110z m96 17 c-3 -32 -6 -72 -6 -87 0 -22 -5 -29 -19 -29 -17
0 -20 11 -26 89 -5 63 -3 95 5 112 l13 23 20 -25 c16 -20 18 -33 13 -83z
m-196 -15 l0 -100 -119 -3 c-156 -4 -151 -5 -151 46 l0 43 73 27 c39 15 97 40
127 56 30 16 58 29 63 30 4 0 7 -45 7 -99z m0 -281 l0 -120 -101 0 -100 0 2
83 2 82 -36 3 c-35 3 -37 5 -37 38 l0 34 135 0 135 0 0 -120z m90 0 l0 -120
-40 0 -40 0 0 120 0 120 40 0 40 0 0 -120z m48 -3 c3 -112 2 -117 -18 -117
-19 0 -20 6 -20 113 0 63 3 117 7 121 20 20 28 -9 31 -117z m92 3 l0 -120 -40
0 -40 0 0 120 0 120 40 0 40 0 0 -120z m60 0 l0 -120 -25 0 -25 0 0 113 c0 63
3 117 7 120 3 4 15 7 25 7 16 0 18 -10 18 -120z"/>
</g>
</svg>
